<svg width="256" height="256" viewBox="0 0 256 256" xmlns="http://www.w3.org/2000/svg" xmlns:xlink="http://www.w3.org/1999/xlink" version="1.1" baseProfile="full">
    <g transform="scale(1,-1) translate(0,-256)">
        <path d="M 1.667659 1.000000 L 257.667659 1.000000 C 257.667659 1.000000 257.667659 1.000000 257.667659 1.000000 L 257.667659 257.000000 C 257.667659 257.000000 257.667659 257.000000 257.667659 257.000000 L 1.667659 257.000000 C 1.667659 257.000000 1.667659 257.000000 1.667659 257.000000 L 1.667659 1.000000 C 1.667659 1.000000 1.667659 1.000000 1.667659 1.000000 Z" transform="scale(1.000000,1.000000) translate(-2.000000,-1.000000)" fill="#834277" opacity="1.000000"></path>
        <path d="M 4.213281 1.677091 L 217.122052 1.677091 C 218.778906 1.677091 220.122052 3.020236 220.122052 4.677091 L 220.122052 154.688748 C 220.122052 154.688748 220.122052 154.688748 220.122052 154.688748 L 1.213282 154.688748 C 1.213282 154.688748 1.213282 154.688748 1.213282 154.688748 L 1.213282 4.677091 C 1.213282 3.020236 2.556427 1.677091 4.213281 1.677091 Z" transform="scale(1.000000,1.000000) translate(17.000000,17.000000)" fill="#ffffff" opacity="1.000000"></path>
        <path d="M 1.978286 1.688748 L 221.357033 1.688748 C 221.357033 1.688748 221.357033 1.688748 221.357033 1.688748 L 221.357033 64.322909 C 221.357033 65.979764 220.013887 67.322909 218.357033 67.322909 L 4.978286 67.322909 C 3.321431 67.322909 1.978286 65.979764 1.978286 64.322909 L 1.978286 1.688748 C 1.978286 1.688748 1.978286 1.688748 1.978286 1.688748 Z" transform="scale(1.000000,1.000000) translate(16.000000,170.000000)" fill="#a15293" opacity="1.000000"></path>
        <path d="M 1.780415 35.755590 C 2.651865 37.840845 4.830490 39.334760 7.102485 39.334760 C 24.251378 39.334760 41.400270 39.334760 58.580285 39.334760 C 60.074200 39.365883 61.568115 38.805665 62.657427 37.809722 C 63.902356 36.689286 64.618190 35.008633 64.587067 33.327979 C 64.587067 26.760980 64.587067 20.193981 64.587067 13.595858 C 64.555943 10.639153 61.972716 7.962556 59.016011 7.900310 C 52.760244 7.869187 46.504477 7.900310 40.248711 7.900310 C 41.089037 5.815054 41.929364 3.760922 42.769691 1.675666 C 39.034905 3.729799 35.362366 5.846177 31.596456 7.869186 C 23.379926 7.931433 15.132273 7.869186 6.884620 7.900310 C 3.927914 7.993679 1.344688 10.639153 1.313564 13.595858 C 1.282441 20.038365 1.313564 26.480871 1.282441 32.892253 C 1.282443 33.857072 1.375812 34.853009 1.780415 35.755590 Z" transform="scale(1.000000,1.000000) translate(33.000000,184.000000)" fill="#ffffff" opacity="1.000000"></path>
        <path d="M 23.927974 26.288742 C 24.861671 27.284685 26.666818 26.973452 27.382652 25.821893 C 27.756130 25.230552 27.787254 24.421349 27.476021 23.798884 C 26.168846 21.184534 25.608628 18.290074 25.110657 15.457862 C 24.519316 11.754199 24.021344 7.988290 24.208083 4.222381 C 24.270330 3.257561 23.803482 2.106002 22.776415 1.857016 C 21.811596 1.639154 20.909022 2.292741 20.286558 2.977452 C 17.485468 5.996404 15.898184 9.886807 14.746625 13.777209 C 13.595066 11.505214 12.443507 9.202096 11.323072 6.930101 C 10.544991 5.373940 9.704664 3.786656 8.459736 2.541727 C 7.930641 2.012633 7.028068 1.545784 6.343357 2.074879 C 5.316290 2.977452 5.067305 4.409120 4.631580 5.622926 C 2.982049 11.318474 2.048353 17.200763 1.083533 23.051928 C 0.865670 24.016747 1.270272 25.199430 2.235092 25.572909 C 3.013172 25.853017 4.040239 25.915264 4.693826 25.323923 C 5.160675 24.919321 5.285167 24.265733 5.378537 23.674392 C 6.063248 19.130402 6.841328 14.617536 7.961764 10.166915 C 9.829157 13.714962 11.696550 17.263009 13.563943 20.842179 C 13.844052 21.371273 14.186408 21.900368 14.684379 22.211600 C 15.369090 22.647325 16.365033 22.616202 16.956374 21.993738 C 17.423222 21.495766 17.609962 20.779932 17.734455 20.126345 C 18.294673 17.200762 19.041630 14.275180 20.130942 11.505213 C 20.597791 15.706847 21.189132 19.970729 22.714170 23.923377 C 23.056523 24.763696 23.367756 25.604027 23.927974 26.288742 M 34.478743 24.016741 C 36.501753 24.265727 38.680378 23.581016 40.049799 22.055978 C 41.170235 20.779926 41.792699 19.130396 42.010562 17.480865 C 42.352917 14.648652 41.823823 11.660823 40.454401 9.139843 C 39.676321 7.708175 38.680378 6.307630 37.248710 5.467303 C 35.163454 4.191251 32.362364 4.346868 30.339355 5.685166 C 28.720948 6.805602 27.818374 8.672995 27.444896 10.540388 C 26.697938 14.804269 27.973990 19.534998 31.179682 22.491704 C 32.113382 23.332036 33.264940 23.861125 34.478743 24.016741 M 34.883346 19.659491 C 33.918526 19.348258 33.296062 18.445685 32.766967 17.636481 C 31.459792 15.520103 31.086313 12.750136 32.144503 10.478141 C 32.424612 9.886800 32.860337 9.233213 33.576171 9.108720 C 34.323128 8.984227 35.007839 9.419952 35.536934 9.886800 C 36.719616 10.913866 37.310957 12.438904 37.622189 13.963942 C 37.933421 15.675719 37.777805 17.574235 36.781862 19.068149 C 36.377262 19.628365 35.568056 19.877357 34.883346 19.659491 M 50.631696 24.016741 C 52.592459 24.265727 54.739961 23.643262 56.109383 22.180471 C 57.354312 20.842173 58.007899 19.068149 58.194638 17.263003 C 58.474747 14.524159 57.976776 11.660823 56.669601 9.233213 C 55.891520 7.770422 54.864454 6.338753 53.370539 5.467303 C 51.378653 4.253498 48.702057 4.377991 46.710171 5.560673 C 45.371872 6.369877 44.469299 7.739298 43.940205 9.202089 C 42.539660 13.652710 43.722342 18.881410 46.959157 22.242718 C 48.017343 23.176420 49.293397 23.861125 50.631696 24.016741 M 51.067419 19.659491 C 50.009230 19.286012 49.386766 18.258946 48.826548 17.356372 C 47.643866 15.271117 47.332633 12.563397 48.421946 10.353648 C 48.702055 9.731184 49.231150 9.139843 49.946984 9.108720 C 50.725064 9.077596 51.409775 9.575568 51.969993 10.104663 C 53.183798 11.287345 53.712893 12.967999 53.899632 14.617529 C 54.086372 16.142567 53.837386 17.792097 52.934813 19.099273 C 52.561335 19.628365 51.752129 19.877357 51.067419 19.659491 Z" transform="scale(1.000000,1.000000) translate(36.000000,193.000000)" fill="#89477e" opacity="1.000000"></path>
        <path d="M 8.231212 19.425402 C 9.942989 19.798880 11.748136 19.767757 13.459913 19.363155 C 13.459913 17.962611 13.459913 16.562066 13.459913 15.161521 C 12.059368 15.503876 10.472084 15.815109 9.133786 15.161521 C 7.515378 14.352317 6.612805 12.516047 6.612805 10.773147 C 6.519435 9.030247 7.110776 7.069484 8.666937 6.073541 C 10.098605 5.139845 11.934875 5.326584 13.491036 5.762309 C 13.491036 4.361764 13.491036 2.961219 13.491036 1.560675 C 11.405780 0.969333 9.133785 1.031580 7.110776 1.778537 C 4.683165 2.681110 2.753526 4.797489 2.006569 7.287347 C 1.446351 9.185863 1.384104 11.208872 1.819829 13.138512 C 2.535658 16.219714 5.150011 18.740687 8.231212 19.425402 M 20.867231 19.643268 C 22.983610 19.892254 25.286728 19.549899 26.998505 18.211600 C 28.648036 16.935548 29.457240 14.850293 29.768472 12.858406 C 30.048581 10.648658 29.986334 8.345540 29.301624 6.229161 C 28.710282 4.424015 27.496477 2.743361 25.753577 1.903034 C 23.979553 1.062707 21.894298 1.000461 19.995781 1.436186 C 18.252881 1.840788 16.696720 2.992347 15.825270 4.579631 C 14.611465 6.696010 14.393602 9.216990 14.486972 11.613478 C 14.580342 13.667611 15.109436 15.815113 16.478858 17.402397 C 17.599293 18.678447 19.217705 19.456527 20.867231 19.643268 M 21.520821 15.628365 C 20.618247 15.410503 20.089153 14.507930 19.871290 13.667603 C 19.435565 11.986949 19.497812 10.244049 19.622304 8.532272 C 19.746797 7.598575 19.840167 6.602632 20.493755 5.855675 C 21.365205 4.859732 23.139228 4.984225 23.917309 6.011291 C 24.446403 6.664878 24.602019 7.505205 24.695389 8.314409 C 24.882128 9.746077 24.913251 11.208868 24.695389 12.640536 C 24.539773 13.511986 24.290787 14.414560 23.668323 15.068147 C 23.108107 15.628365 22.267776 15.815107 21.520821 15.628365 M 104.526437 19.363152 C 106.331584 19.830000 108.230100 19.767753 110.035247 19.394275 C 110.066370 17.993730 110.035247 16.593185 110.066370 15.161517 C 108.696949 15.503872 107.171911 15.815105 105.833613 15.223763 C 104.277452 14.507930 103.343755 12.858399 103.219262 11.208869 C 103.032523 9.341475 103.530495 7.225097 105.180025 6.135784 C 106.611693 5.139841 108.479086 5.326581 110.066370 5.793429 C 110.035247 4.392884 110.097494 2.961216 110.035247 1.560671 C 107.825499 1.000453 105.397888 1.062700 103.312632 1.965273 C 101.009514 2.961216 99.204367 5.077595 98.550780 7.505205 C 98.052808 9.372599 97.990562 11.364484 98.457410 13.263001 C 99.142124 16.188589 101.600866 18.585071 104.526437 19.363152 M 32.538438 19.238661 C 34.530324 19.238661 36.553333 19.238661 38.545219 19.238661 C 39.261053 16.001846 39.945764 12.733908 40.568228 9.465970 C 41.128446 12.765032 41.906526 16.001846 42.684607 19.238661 C 44.738739 19.238661 46.792872 19.238661 48.847004 19.238661 C 49.656207 13.356373 50.434288 7.474084 51.212368 1.622920 C 49.656207 1.622920 48.068923 1.622920 46.512762 1.622920 C 46.077037 5.637815 45.703559 9.683833 45.236710 13.698728 C 44.271891 9.683833 43.275948 5.637815 42.311128 1.622920 C 41.252939 1.622920 40.163626 1.622920 39.105437 1.622920 C 38.078370 5.637815 37.082427 9.683833 36.024238 13.729852 C 35.619636 9.714957 35.215034 5.668939 34.810433 1.622920 C 33.316518 1.622920 31.822604 1.622920 30.297566 1.622920 C 31.044527 7.474088 31.791483 13.356374 32.538438 19.238661 M 54.075709 19.238661 C 56.067595 19.238661 58.090604 19.238661 60.082489 19.238661 C 60.798323 16.001846 61.483034 12.733908 62.105499 9.465970 C 62.696840 12.733908 63.443797 16.001846 64.221878 19.238661 L 70.353152 19.238661 C 71.162355 13.356373 71.940436 7.474084 72.718516 1.622920 C 71.162355 1.622920 69.575071 1.622920 68.018910 1.622920 C 67.583185 5.637815 67.178583 9.683833 66.742858 13.698728 C 65.778039 9.683833 64.813219 5.637815 63.817276 1.622920 C 62.759086 1.622920 61.669774 1.622920 60.611584 1.622920 C 59.584518 5.668938 58.557452 9.683833 57.530386 13.729852 C 57.125784 9.683834 56.721182 5.668939 56.316580 1.622920 C 54.822666 1.622920 53.328751 1.622920 51.803714 1.622920 C 52.581798 7.474088 53.328753 13.356374 54.075709 19.238661 M 74.087934 19.176420 C 77.293626 19.238666 80.530440 19.176420 83.736132 19.207543 C 83.736132 17.962614 83.736132 16.717686 83.736132 15.441634 C 82.117724 15.410510 80.499317 15.441634 78.880909 15.441634 C 78.880909 14.352321 78.880909 13.294132 78.880909 12.204819 C 80.281454 12.204819 81.681999 12.204819 83.082544 12.204819 C 83.082544 10.991014 83.082544 9.777208 83.082544 8.563403 C 81.681999 8.563403 80.281454 8.563403 78.880909 8.563403 C 78.880909 7.505213 78.880909 6.415901 78.880909 5.326588 C 80.499317 5.326588 82.148847 5.326588 83.767255 5.326588 C 83.767255 4.081659 83.767255 2.836731 83.767255 1.560679 C 80.561563 1.560679 77.324748 1.560679 74.119057 1.560679 C 74.087934 7.442963 74.150184 13.294124 74.087934 19.176420 M 85.105561 19.238661 C 87.128570 19.238661 89.120456 19.269784 91.143465 19.238661 C 93.041981 19.176414 95.064990 18.709566 96.465535 17.371268 C 97.741587 16.188585 98.177312 14.227822 97.679341 12.578292 C 97.274739 11.239994 96.278796 10.150681 95.033867 9.559340 C 96.278796 6.913867 97.554848 4.268393 98.830900 1.622919 C 97.150246 1.622919 95.469592 1.622919 93.820062 1.622919 C 92.512887 4.330639 91.236834 7.038359 89.898536 9.714956 C 89.867413 7.007236 89.898536 4.299516 89.898536 1.622919 C 88.311252 1.622919 86.723968 1.622919 85.136684 1.622919 C 85.105561 7.474088 85.105561 13.356374 85.105561 19.238661 M 89.867409 15.846232 C 89.867409 14.445687 89.867409 13.045142 89.867409 11.644597 C 90.738859 11.706844 91.672556 11.737967 92.388390 12.267062 C 93.228717 12.889526 93.135347 14.165578 92.606253 14.974782 C 91.952669 15.752866 90.801106 15.752866 89.867409 15.846232 M 111.404680 19.207536 C 114.610371 19.207536 117.816063 19.207536 121.021754 19.207536 C 121.021754 17.962607 121.021754 16.686555 121.021754 15.441626 C 119.403347 15.441626 117.753816 15.441626 116.135409 15.441626 C 116.135409 14.352313 116.135409 13.294124 116.135409 12.204811 C 117.535954 12.204811 118.936499 12.204811 120.337043 12.204811 C 120.337043 10.991006 120.337043 9.777200 120.337043 8.563395 L 116.135409 8.563395 C 116.135409 7.474082 116.135409 6.415893 116.135409 5.326580 C 117.784940 5.326580 119.403347 5.326580 121.052877 5.326580 C 121.052877 4.081652 121.052877 2.836723 121.052877 1.560671 C 117.847186 1.560671 114.610371 1.560671 111.404680 1.560671 C 111.373545 7.474088 111.404680 13.356374 111.404680 19.207536 Z" transform="scale(1.000000,1.000000) translate(100.000000,197.000000)" fill="#ffffff" opacity="1.000000"></path>
        <path d="M 49.673056 23.747414 C 58.122494 20.874605 60.150359 20.705616 60.150359 20.705616 L 60.150359 51.123593 C 60.150359 56.362244 55.925640 60.586962 50.686989 60.586962 L 10.636656 60.586962 C 5.398005 60.586962 1.173286 56.362243 1.173286 51.123593 L 1.173286 11.242248 C 1.173286 6.003598 5.398005 1.778878 10.636656 1.778878 L 50.686989 1.778878 C 55.925640 1.778878 60.150359 6.003597 60.150359 11.242247 L 60.150359 11.580225 C 60.150359 11.580225 44.772383 18.001797 36.998901 21.719550 C 31.760250 15.297978 25.169688 11.411237 18.072162 11.411237 C 11.143623 11.411237 6.242949 15.466966 5.735983 19.691685 C 5.735983 19.691685 4.215084 24.085393 7.932836 28.479100 C 9.284746 29.999999 11.312611 31.351909 14.523398 32.196853 C 19.593060 33.379774 27.535531 31.351909 34.971035 28.986067 C 36.322945 31.520898 37.505867 34.224718 38.350810 37.097526 L 15.199352 37.097526 L 15.199352 39.463369 L 27.028565 39.463369 L 27.028565 43.688088 L 12.664521 43.688088 L 12.664521 45.884940 L 27.028565 45.884940 L 27.028565 51.799547 C 27.028565 51.799547 27.028565 52.813480 28.042497 52.813480 L 33.788115 52.813480 L 33.788115 45.884941 L 47.983170 45.884941 L 47.983170 43.519099 L 33.788115 43.519099 L 33.788115 39.294380 L 45.448338 39.294380 C 44.265417 34.731683 42.575530 30.506965 40.547665 26.958201 C 44.265417 25.775279 47.307215 24.592358 49.673057 23.747414 Z" transform="scale(1.000000,1.000000) translate(42.000000,64.000000)" fill="#228bb2" opacity="1.000000"></path>
        <path d="M 60.150359 11.580224 L 60.150359 11.242246 C 60.150359 6.003595 55.925640 1.778877 50.686989 1.778877 L 10.636656 1.778877 C 5.398005 1.778878 1.173286 6.003598 1.173286 11.242249 L 1.173286 51.123593 C 1.173286 56.362243 5.398005 60.586962 10.636656 60.586962 L 50.686989 60.586962 C 55.925640 60.586962 60.150359 56.362243 60.150359 51.123592 L 60.150359 11.580226 Z" transform="scale(1.000000,1.000000) translate(42.000000,64.000000)" fill="#118ce2" opacity="1.000000"></path>
        <path d="M 45.673056 13.747414 C 43.307214 14.592357 40.096428 15.775279 36.547664 16.958200 C 38.744518 20.675952 40.434405 24.731682 41.448337 29.294379 L 29.788114 29.294379 L 29.788114 33.519098 L 43.983169 33.519098 L 43.983169 35.884940 L 29.788114 35.884940 L 29.788114 42.813480 L 24.211486 42.813480 C 23.197553 42.813480 23.197553 41.799547 23.197553 41.799547 L 23.197553 35.884941 L 8.664521 35.884941 L 8.664521 33.519099 L 23.028565 33.519099 L 23.028565 29.294380 L 11.199352 29.294380 L 11.199352 26.928537 L 34.350812 26.928537 C 33.505868 24.055729 32.322947 21.351909 30.971037 18.817078 C 23.535532 21.351909 15.424072 23.210785 10.523399 22.027864 C 7.312613 21.351909 5.284748 19.999999 3.932838 18.479100 C -1.643791 11.719550 2.411939 1.411237 14.072163 1.411237 C 21.000702 1.411237 27.760252 5.297979 32.998903 11.719551 C 40.772385 8.001798 56.150360 1.580226 56.150360 1.580226 L 56.150360 10.705618 C 56.150360 10.705618 54.291484 10.874607 45.673058 13.747415 M 13.058229 5.466966 C 3.932836 5.466966 1.229016 12.733482 5.622724 16.620223 C 7.143623 17.972133 9.847443 18.648088 11.368341 18.817077 C 16.775981 19.324043 21.845644 17.296178 27.760250 14.423369 C 23.704520 8.846741 18.465868 5.466966 13.058229 5.466966 Z" transform="scale(1.000000,1.000000) translate(46.000000,74.000000)" fill="#ffffff" opacity="1.000000"></path>
        <path d="M 44.137768 28.461570 L 61.036643 28.461570 L 61.036643 25.081795 L 67.120238 25.081795 L 67.120238 28.968536 C 67.120238 29.813480 66.444283 30.658424 65.599339 30.658424 L 55.797992 30.658424 L 55.797992 33.869210 L 49.545409 33.869210 L 49.545409 30.827412 L 38.054175 30.827412 L 38.054175 24.912806 L 44.137769 24.912806 L 44.137769 28.461570 Z M 7.636195 33.531232 L 1.383611 18.829211 L 6.115296 18.829211 L 6.115296 1.423370 L 11.353947 1.423370 L 11.353947 24.574829 L 9.495071 24.574829 L 13.381812 33.531232 Z M 67.627205 2.268315 L 65.768329 8.689888 C 65.599340 9.027865 65.261363 9.365843 64.754397 9.365843 L 59.684734 9.365843 L 61.205633 4.465169 L 55.291027 4.465169 L 55.291027 13.928538 L 66.951250 13.928538 L 66.951250 16.125392 L 55.291027 16.125392 L 55.291027 20.688088 L 66.951250 20.688088 L 66.951250 23.053930 L 38.054175 23.053930 L 38.054175 20.857076 L 49.714398 20.857076 L 49.714398 16.294380 L 38.054175 16.294380 L 38.054175 14.097526 L 49.714398 14.097526 L 49.714398 4.634156 L 38.054175 4.634156 L 38.054175 2.437301 L 67.627205 2.268312 Z M 19.803381 22.208986 L 15.240685 22.208986 L 18.789448 11.224717 L 24.028100 11.224717 L 20.817313 21.533030 C 20.648325 21.871008 20.141358 22.208985 19.803381 22.208985 Z" transform="scale(1.000000,1.000000) translate(142.000000,87.000000)" fill="#302b2c" opacity="1.000000"></path>
        <path d="M 64.139560 33.193255 L 58.731920 33.193255 L 58.731920 27.616626 L 45.381809 27.616626 L 45.381809 25.419772 L 58.731920 25.419772 L 58.731920 5.141122 C 58.731920 4.634156 58.393942 4.296178 57.886976 4.296178 L 55.183156 4.296178 L 55.183156 1.930336 L 62.111695 1.930336 C 63.294616 1.930336 64.139560 2.944268 64.139560 3.958201 L 64.139560 25.419772 L 66.336414 25.419772 L 66.336414 27.616626 L 64.139560 27.616626 L 64.139560 33.193255 Z M 23.751255 20.688088 C 23.751255 20.688088 20.878447 9.534830 1.613729 3.789212 L 1.613729 1.085392 C 1.613729 1.085392 25.948108 5.648088 30.510805 23.053930 L 23.920244 22.039997 L 23.751255 20.688087 Z" transform="scale(1.000000,1.000000) translate(110.000000,87.000000)" fill="#302b2c" opacity="1.000000"></path>
        <path d="M 10.570134 19.322246 C 10.570134 19.322246 15.301819 10.872808 32.538672 4.620225 L 32.538672 1.916405 C 32.538672 1.916405 12.935978 5.803146 5.162494 19.322246 L 10.570134 19.322246 Z M 29.496870 21.688088 L 3.810585 21.688088 L 3.810585 24.053930 L 30.510807 24.053930 Z M 1.951708 27.602693 L 32.200696 27.602693 L 32.200696 29.968536 L 1.951708 29.968536 Z" transform="scale(1.000000,1.000000) translate(110.000000,86.000000)" fill="#302b2c" opacity="1.000000"></path>
        <path d="M 10.794851 51.700221 C 10.287885 51.700221 9.780919 51.193254 9.780919 50.686288 L 9.780919 39.533031 L 16.202491 39.533031 L 16.202491 51.700221 L 10.794851 51.700221 Z M 9.611931 4.045394 L 10.456875 1.341574 L 12.991706 1.341574 L 8.091032 14.691685 L 6.232156 14.691685 L 1.331482 1.341574 L 3.866314 1.341574 L 4.880246 4.045394 L 9.611931 4.045394 Z M 7.077100 11.311911 L 8.935976 5.735282 L 5.218222 5.735282 L 7.077098 11.311911 Z M 20.934175 14.691686 L 20.934175 1.341575 L 29.045635 1.341575 L 29.045635 3.200451 L 23.300017 3.200451 L 23.300017 14.691687 Z M 37.833049 1.341573 L 40.198892 1.341573 L 40.198892 14.691683 L 37.833049 14.691683 Z M 55.238887 14.691686 L 50.000236 14.691686 L 50.000236 1.341575 L 52.535075 1.341575 L 52.535075 6.580226 L 55.407884 6.580226 C 57.942715 6.580226 59.801592 8.270114 59.801592 10.635956 C 59.632603 13.001799 57.942715 14.691686 55.238895 14.691686 M 55.069907 8.270114 L 52.535075 8.270114 L 52.535075 12.832810 L 55.238895 12.832810 C 56.590805 12.832810 57.435749 11.649889 57.435749 10.466968 C 57.266760 9.453035 56.590806 8.270114 55.069907 8.270114 M 73.827652 4.045394 L 74.672595 1.341574 L 77.207427 1.341574 L 72.306753 14.691685 L 70.447877 14.691685 L 65.547203 1.341574 L 68.082035 1.341574 L 69.095967 4.045394 L 73.827652 4.045394 Z M 71.461809 11.311911 L 73.320685 5.735282 L 69.602933 5.735282 L 71.461809 11.311911 Z M 95.458213 14.691686 L 92.923382 9.115057 L 90.219562 14.691686 L 87.684730 14.691686 L 91.740460 6.918204 L 91.740460 1.341575 L 94.106303 1.341575 L 94.106303 6.918202 L 98.162032 14.691684 Z" transform="scale(1.000000,1.000000) translate(114.000000,69.000000)" fill="#302b2c" opacity="1.000000"></path>
    </g>
</svg>