<?xml version="1.0" standalone="no"?><!DOCTYPE svg PUBLIC "-//W3C//DTD SVG 1.1//EN" "http://www.w3.org/Graphics/SVG/1.1/DTD/svg11.dtd"><svg t="1556928308121" class="icon" style="" viewBox="0 0 1037 1024" version="1.1" xmlns="http://www.w3.org/2000/svg" p-id="2021" xmlns:xlink="http://www.w3.org/1999/xlink" width="259.25" height="256"><defs><style type="text/css"></style></defs><path d="M665.6 614.4c70.4-128 96-249.6 96-249.6H524.8v-89.6h281.6v-38.4H524.8V102.4h-128v134.4h-256v38.4h256v89.6H179.2v38.4h441.6c0 6.4 0 6.4-6.4 12.8 0 44.8-32 108.8-57.6 160-326.4-128-422.4-51.2-448-38.4C-108.8 691.2 96 883.2 128 876.8 358.4 928 505.6 832 608 710.4c6.4 6.4 12.8 6.4 19.2 6.4 70.4 38.4 409.6 198.4 409.6 198.4v-192c-51.2 0-236.8-64-371.2-108.8zM499.2 672c-160 204.8-352 140.8-384 128-76.8-19.2-102.4-160-6.4-204.8 160-51.2 300.8 6.4 403.2 57.6-6.4 12.8-12.8 19.2-12.8 19.2z" fill="#ffffff" p-id="2022"></path></svg>